<?xml version="1.0" standalone="no"?>
<!DOCTYPE svg PUBLIC "-//W3C//DTD SVG 20010904//EN"
 "http://www.w3.org/TR/2001/REC-SVG-20010904/DTD/svg10.dtd">
<svg version="1.0" xmlns="http://www.w3.org/2000/svg"
 width="604.000000pt" height="604.000000pt" viewBox="0 0 604.000000 604.000000"
 preserveAspectRatio="xMidYMid meet">
<metadata>
Created by potrace 1.14, written by Peter Selinger 2001-2017
</metadata>
<g transform="translate(0.000000,604.000000) scale(0.100000,-0.100000)"
fill="#000000" stroke="none">
<path d="M3169 4551 c-3 -8 -13 -15 -22 -17 -9 -1 -14 2 -11 8 4 6 -1 6 -13
-1 -14 -7 -24 -7 -33 2 -10 9 -11 9 -6 0 4 -7 2 -13 -3 -13 -6 0 -11 5 -11 11
0 8 -5 8 -15 -1 -12 -10 -15 -10 -15 0 0 10 -3 10 -15 0 -12 -10 -15 -10 -15
1 0 10 -3 10 -12 1 -9 -9 -15 -9 -27 1 -12 9 -13 9 -7 0 4 -8 1 -13 -8 -13 -9
0 -16 -6 -16 -12 0 -9 -4 -8 -10 2 -9 14 -14 7 -11 -13 1 -4 -7 -7 -16 -5 -10
2 -17 -2 -16 -8 3 -14 -43 -28 -59 -18 -6 4 -8 3 -4 -4 3 -6 2 -13 -4 -17 -5
-3 -10 0 -10 7 0 10 -2 10 -9 -1 -5 -8 -16 -11 -25 -8 -9 4 -16 2 -16 -4 0 -6
-3 -8 -7 -6 -10 6 -34 -19 -26 -27 4 -3 -2 -6 -13 -7 -10 0 -14 -3 -7 -6 10
-3 10 -7 0 -18 -7 -7 -15 -11 -19 -9 -4 3 -3 -10 2 -27 8 -25 7 -29 -5 -19
-11 9 -13 6 -11 -14 2 -15 -1 -26 -5 -26 -5 0 -9 5 -9 12 0 6 -3 9 -6 5 -3 -3
-2 -12 2 -19 13 -20 14 -39 1 -31 -6 4 -8 0 -4 -10 3 -10 2 -17 -4 -17 -6 0
-7 -4 -4 -10 3 -5 1 -10 -4 -10 -6 0 -11 -7 -11 -16 0 -8 -4 -13 -9 -10 -5 4
-7 -3 -4 -14 3 -12 0 -20 -6 -20 -7 0 -9 5 -5 12 4 7 3 8 -5 4 -9 -6 -9 -11
-1 -21 8 -9 6 -14 -5 -19 -8 -3 -15 -9 -14 -13 4 -21 -2 -44 -9 -39 -5 3 -9
-1 -9 -9 0 -8 4 -12 8 -10 10 7 5 -22 -6 -32 -4 -4 -5 -2 0 6 6 10 4 12 -4 7
-9 -6 -9 -11 -1 -21 9 -10 6 -19 -9 -34 -22 -22 -28 -37 -12 -27 10 6 9 -8 -2
-34 -4 -8 -8 -24 -10 -35 -1 -11 -7 -26 -11 -34 -6 -9 -5 -12 1 -8 6 4 14 0
17 -9 3 -8 2 -13 -3 -10 -5 4 -7 -3 -4 -14 3 -11 -1 -28 -8 -38 -11 -14 -11
-15 1 -4 20 17 35 15 20 -3 -7 -9 -8 -15 -2 -15 5 0 13 -7 16 -16 6 -15 4 -15
-11 -3 -10 7 -7 0 7 -15 14 -16 18 -25 10 -21 -13 7 -13 6 -2 -7 10 -13 10
-17 0 -21 -10 -4 -10 -6 0 -6 6 -1 12 -12 12 -26 0 -14 5 -25 10 -25 6 0 10
-8 8 -17 -2 -10 3 -18 10 -19 6 -1 17 -2 22 -3 6 0 10 -8 10 -16 0 -8 3 -15 8
-15 4 0 13 -9 20 -21 8 -12 9 -18 4 -15 -14 8 -22 -30 -9 -43 8 -8 8 -11 0
-11 -5 0 -9 -10 -9 -22 1 -13 -2 -31 -7 -42 -7 -13 -6 -16 3 -11 9 6 9 2 1
-14 -7 -12 -9 -26 -6 -31 3 -6 1 -10 -4 -10 -6 0 -11 -8 -11 -17 0 -15 -2 -16
-10 -3 -6 10 -10 11 -10 3 0 -7 -7 -13 -16 -13 -8 0 -13 -4 -10 -8 3 -5 -4
-15 -15 -22 -10 -8 -19 -19 -19 -24 0 -11 -40 -46 -52 -46 -5 0 -7 -4 -3 -9 3
-5 -4 -12 -15 -16 -11 -3 -20 -13 -20 -21 0 -8 -9 -14 -20 -14 -11 0 -19 -3
-19 -7 3 -13 -25 -73 -33 -73 -4 0 -8 -7 -8 -15 0 -8 -4 -15 -8 -15 -4 0 -9
-12 -10 -26 -1 -15 -6 -32 -11 -38 -6 -7 -6 -18 -1 -26 5 -9 5 -19 -2 -27 -6
-8 -8 -16 -5 -20 3 -3 0 -20 -8 -39 -10 -24 -11 -34 -2 -38 8 -3 8 -5 -1 -5
-7 -1 -10 -5 -7 -11 3 -5 2 -10 -3 -10 -6 0 -13 -7 -16 -16 -4 -9 -2 -13 5 -8
6 3 4 -5 -5 -18 -9 -14 -13 -28 -9 -31 3 -4 2 -7 -4 -7 -6 0 -14 -17 -18 -37
-4 -21 -12 -41 -18 -45 -9 -6 -8 -8 2 -8 11 0 11 -3 1 -15 -10 -12 -9 -15 6
-15 12 0 15 -3 8 -8 -12 -8 -15 -42 -3 -42 7 0 22 -39 20 -52 -1 -5 5 -8 12
-8 10 0 36 -44 44 -75 24 -99 38 -177 48 -265 7 -58 15 -114 20 -139 9 -49 16
-140 19 -266 3 -117 19 -215 37 -215 3 0 12 -18 19 -40 7 -22 17 -40 21 -40 8
0 24 -40 21 -52 -1 -5 2 -8 7 -8 6 0 10 -8 10 -17 3 -75 2 -118 -4 -183 -4
-41 -7 -77 -8 -80 0 -3 3 -30 7 -60 4 -30 9 -82 11 -115 4 -67 6 -75 24 -127
l13 -38 444 0 c401 0 479 4 432 23 -7 3 -4 6 7 7 18 1 19 1 2 11 -14 8 -15 14
-6 31 8 15 8 19 0 14 -6 -4 -11 0 -11 9 0 10 5 13 13 9 8 -6 8 -3 -2 9 -7 9
-11 24 -7 32 3 9 2 13 -3 10 -5 -3 -13 0 -17 6 -3 6 0 15 7 20 10 6 11 9 2 9
-7 0 -13 7 -13 16 0 20 -25 45 -36 36 -5 -4 -2 1 5 11 12 15 12 17 -2 11 -12
-4 -14 0 -10 18 4 18 3 20 -6 8 -6 -8 -11 -10 -11 -4 0 21 28 35 57 29 20 -4
23 -3 9 3 -14 6 -16 11 -8 16 7 4 17 4 22 1 6 -3 10 -1 10 5 0 6 4 9 9 5 5 -3
12 -1 15 3 3 5 18 10 33 10 49 3 62 8 80 29 15 17 23 68 13 81 -2 1 -3 8 -4
15 -1 6 -10 11 -20 9 -11 -2 -15 1 -11 7 3 6 -1 11 -9 11 -9 0 -16 5 -16 11 0
5 6 7 13 3 7 -5 6 -1 -3 10 -12 16 -12 19 3 27 9 5 14 16 11 23 -3 8 3 19 15
25 11 6 20 19 21 29 0 9 3 73 5 142 3 69 6 154 8 190 2 36 -2 88 -8 115 -15
65 -16 95 -3 95 5 0 7 7 4 16 -3 8 -2 12 4 9 6 -3 10 3 10 15 0 14 4 19 13 14
9 -6 9 -4 1 7 -12 14 -12 143 -1 209 3 19 9 62 12 95 8 83 8 85 11 85 1 0 15
-5 31 -12 15 -7 33 -13 38 -13 9 -2 42 -14 85 -32 8 -3 26 -8 39 -10 14 -2 32
-8 40 -12 9 -5 24 -7 34 -6 9 2 17 -1 17 -7 0 -6 7 -7 16 -4 8 3 13 2 10 -2
-3 -5 8 -16 25 -26 16 -9 29 -14 29 -10 0 3 8 0 17 -7 15 -12 16 -12 8 1 -7
12 -6 13 6 4 8 -5 25 -10 39 -9 14 1 35 -2 48 -7 12 -4 22 -4 22 0 0 12 74 9
82 -3 5 -7 8 -6 8 0 0 12 40 12 59 1 7 -4 15 -5 18 -2 4 3 2 6 -4 6 -5 0 -10
6 -10 14 0 9 8 13 20 10 11 -2 17 -1 13 3 -3 3 0 13 7 21 10 13 9 15 -3 8 -13
-6 -13 -6 0 6 9 7 15 25 15 40 -1 15 3 24 7 22 4 -3 8 -1 8 5 0 5 -5 11 -11
13 -9 3 -9 9 -1 24 8 15 8 24 0 32 -9 9 -8 12 2 12 13 0 13 2 1 9 -11 7 -12
13 -3 23 8 10 8 18 1 25 -8 8 -7 13 1 18 16 10 -27 44 -51 40 -12 -3 -17 0
-13 7 5 7 2 9 -9 5 -9 -3 -18 -1 -21 6 -3 9 -5 9 -5 0 -1 -8 -10 -9 -31 -3
-17 5 -32 10 -35 12 -2 2 -16 -12 -31 -29 -15 -18 -30 -30 -35 -27 -5 3 -9 -2
-9 -10 0 -16 -43 -39 -95 -51 -54 -14 -95 -11 -114 7 -11 9 -22 14 -25 11 -3
-4 -6 2 -6 13 0 14 -2 16 -9 5 -6 -9 -11 -10 -15 -2 -4 6 -4 16 0 23 4 6 3 8
-3 5 -12 -8 -55 21 -48 33 3 4 -5 6 -17 3 -19 -4 -20 -3 -8 6 13 10 13 11 0
12 -8 1 -18 1 -22 0 -5 0 -8 4 -8 10 0 17 -28 40 -35 29 -3 -5 -12 -10 -18 -9
-8 0 -8 2 1 6 21 8 -7 33 -38 33 -33 0 -43 9 -29 27 9 10 7 13 -7 13 -11 0
-15 4 -9 8 13 9 17 32 6 32 -5 0 -9 15 -9 33 -1 64 -8 122 -15 135 -5 6 -4 12
1 12 4 0 8 26 7 58 -1 31 2 62 7 69 5 6 5 14 0 17 -6 3 -7 20 -3 38 4 18 4 46
0 61 -4 16 -6 37 -4 48 2 11 0 17 -4 14 -5 -2 -14 9 -21 25 -7 17 -16 30 -21
30 -5 0 -9 5 -9 10 0 16 -34 46 -68 61 -18 8 -32 18 -32 22 0 5 -3 6 -7 4 -20
-12 -87 -16 -99 -6 -14 11 -8 42 7 33 5 -3 12 2 15 10 3 9 10 14 14 11 5 -3
14 1 22 8 7 7 20 12 28 12 8 0 18 3 21 8 3 4 16 9 27 10 12 1 22 5 22 9 0 4 5
8 10 8 17 0 47 35 42 50 -3 7 0 10 5 7 5 -3 16 9 23 28 10 25 16 31 23 23 5
-9 7 -3 4 15 -2 15 0 27 4 27 5 0 16 14 25 31 8 17 11 28 5 25 -6 -4 -11 -3
-11 3 0 5 5 13 11 17 6 3 9 19 7 35 -3 15 -1 26 3 23 4 -2 10 0 14 6 3 5 0 10
-7 10 -10 0 -10 2 1 9 9 6 12 20 9 40 -4 24 -1 31 9 27 9 -4 11 -2 6 7 -11 18
-14 49 -4 43 5 -3 8 10 6 29 -1 19 2 35 7 35 5 0 4 10 -3 21 -8 16 -8 23 1 29
9 6 9 9 1 15 -9 5 -9 10 -1 20 8 9 8 15 0 20 -5 3 -8 17 -6 30 4 23 -15 51
-26 39 -3 -2 -8 1 -11 9 -4 10 2 13 21 10 24 -3 24 -2 7 6 -11 5 -15 10 -8 10
7 1 10 8 7 16 -4 8 -10 12 -15 9 -5 -3 -9 0 -9 5 0 6 5 11 10 11 6 0 10 5 10
11 0 5 -4 7 -10 4 -5 -3 -10 3 -10 15 0 12 -4 19 -8 16 -13 -8 -11 28 2 37 7
6 4 7 -7 3 -18 -6 -47 14 -47 31 0 5 -9 16 -20 26 -12 10 -18 22 -15 27 3 6
-3 10 -15 10 -12 0 -19 4 -16 8 2 4 -5 14 -17 22 -21 12 -21 12 -7 -6 14 -18
13 -17 -10 1 -14 11 -28 25 -33 32 -4 6 -18 10 -32 9 -13 -2 -22 0 -20 5 3 4
-5 9 -17 11 -13 2 -22 9 -20 16 1 8 -5 12 -15 10 -11 -2 -17 2 -15 11 3 12 1
12 -14 0 -16 -12 -17 -12 -12 2 4 9 1 16 -8 16 -7 0 -11 -4 -8 -9 3 -4 -2 -5
-10 -2 -8 3 -14 11 -12 17 1 7 1 9 -1 5 -7 -12 -33 -9 -33 3 0 5 -4 7 -10 4
-5 -3 -19 -1 -31 6 -16 8 -23 8 -29 -1 -6 -9 -9 -9 -12 1 -4 12 -5 12 -9 0z
m526 -431 c3 -5 -1 -10 -10 -10 -9 0 -13 5 -10 10 3 6 8 10 10 10 2 0 7 -4 10
-10z m5 -26 c0 -8 -19 -13 -24 -6 -3 5 1 9 9 9 8 0 15 -2 15 -3z"/>
<path d="M3396 1047 c3 -10 9 -15 12 -12 3 3 0 11 -7 18 -10 9 -11 8 -5 -6z"/>
</g>
</svg>
